<?xml version="1.0" encoding="UTF-8" standalone="no"?>
<!-- Created with Inkscape (http://www.inkscape.org/) -->

<svg
   xmlns:dc="http://purl.org/dc/elements/1.1/"
   xmlns:cc="http://creativecommons.org/ns#"
   xmlns:rdf="http://www.w3.org/1999/02/22-rdf-syntax-ns#"
   xmlns:svg="http://www.w3.org/2000/svg"
   xmlns="http://www.w3.org/2000/svg"
   xmlns:sodipodi="http://sodipodi.sourceforge.net/DTD/sodipodi-0.dtd"
   xmlns:inkscape="http://www.inkscape.org/namespaces/inkscape"
   width="31.915272"
   height="27.544891"
   id="svg2"
   version="1.1"
   inkscape:version="0.48.4 r9939"
   sodipodi:docname="raft.svg">
  <defs
     id="defs4" />
  <sodipodi:namedview
     id="base"
     pagecolor="#ffffff"
     bordercolor="#666666"
     borderopacity="1.0"
     inkscape:pageopacity="0.0"
     inkscape:pageshadow="2"
     inkscape:zoom="16"
     inkscape:cx="27.843809"
     inkscape:cy="13.076628"
     inkscape:document-units="px"
     inkscape:current-layer="layer1"
     showgrid="false"
     fit-margin-top="0"
     fit-margin-left="0"
     fit-margin-right="0"
     fit-margin-bottom="0"
     inkscape:window-width="1600"
     inkscape:window-height="841"
     inkscape:window-x="0"
     inkscape:window-y="27"
     inkscape:window-maximized="1" />
  <metadata
     id="metadata7">
    <rdf:RDF>
      <cc:Work
         rdf:about="">
        <dc:format>image/svg+xml</dc:format>
        <dc:type
           rdf:resource="http://purl.org/dc/dcmitype/StillImage" />
        <dc:title></dc:title>
      </cc:Work>
    </rdf:RDF>
  </metadata>
  <g
     inkscape:label="Layer 1"
     inkscape:groupmode="layer"
     id="layer1"
     transform="translate(-488.26605,-359.64652)">
    <g
       id="g9102">
      <g
         transform="matrix(0.33853114,0,0,0.33853114,339.88522,246.08921)"
         id="g6261">
        <path
           inkscape:connector-curvature="0"
           d="m 478.45272,345.20825 -1.088,2.317 c -0.71,1.442 -2.176,2.436 -3.854,2.436 h -2.555 c 1.467,2.081 3.879,3.429 6.598,3.429 4.447,0 8.064,-3.594 8.064,-8.041 v -0.426 h -6.787 c -0.166,0 -0.331,0.119 -0.378,0.285 z"
           id="path6230" />
        <path
           inkscape:connector-curvature="0"
           d="m 473.50972,347.92725 c 0.875,0 1.655,-0.521 2.01,-1.277 l 1.064,-2.317 c 0.402,-0.875 1.254,-1.466 2.246,-1.466 h 8.324 c -1.087,-4.281 -4.989,-7.426 -9.601,-7.426 -5.462,0 -9.885,4.422 -9.885,9.908 0,0.875 0.096,1.75 0.332,2.578 h 5.51 z"
           id="path6232" />
      </g>
      <path
         sodipodi:nodetypes="ccccccccccccccccccccccccc"
         inkscape:connector-curvature="0"
         id="path6228"
         d="m 514.0969,366.3636 2.51247,-2.51248 c 0.70487,-0.70457 0.70487,-1.8365 0,-2.53384 -0.69734,-0.70457 -1.8365,-0.70457 -2.53354,0 l -2.51249,2.51248 c -0.60525,0.60493 -0.68349,1.53042 -0.24228,2.22053 l -3.12463,3.12826 -6.20625,-2.2988 c -0.16373,-0.0927 -0.33468,-0.17095 -0.52669,-0.22783 -1.35226,-0.4057 -2.78305,0.36297 -3.18875,1.71522 l -1.90753,6.39134 c -0.0283,0.0746 -0.0355,0.13874 -0.0428,0.20285 -2.93416,0.46754 9.27467,0.82704 7.38092,-6.3e-4 l 3.60138,-3.59776 0.48396,0.18509 c 0.61216,0.22061 1.29535,-0.0927 1.5232,-0.70456 0.15679,-0.43399 0.0355,-0.9038 -0.26336,-1.21711 l 2.94647,-2.95731 c 0.67628,0.35665 1.53042,0.26425 2.09985,-0.30518 z m -11.68657,8.59773 -0.76175,0 1.53734,-5.12096 3.1746,1.17438 z" />
      <path
         sodipodi:nodetypes="cccccccccccc"
         d="m 517.38601,371.86236 c -2.11293,0.0671 -5.46798,1.41116 -8.26304,1.7465 -2.63257,0.31572 -11.20315,0.6347 -12.9502,0.59217 -1.67616,-0.0403 -3.79781,-0.64724 -5.04648,-0.60743 -1.13853,0.0365 -2.69322,0.99547 -2.80924,2.06658 0.0447,1.73911 0.73733,2.58872 2.21526,3.25308 1.92135,0.81239 8.1281,1.55999 12.35166,1.43138 0.39642,-0.0125 0.7901,-0.0262 1.18215,-0.0398 0,0 1.08095,-0.0189 1.19742,-0.0453 4.4107,-0.1843 8.43044,-0.52673 11.09572,-1.51749 2.62658,-0.97658 3.8578,-2.08457 3.82127,-3.70403 -0.0447,-1.81793 -1.18052,-3.22746 -2.79452,-3.17566 z"
         id="path7898"
         inkscape:connector-curvature="0"
         style="fill:#000000" />
      <path
         sodipodi:nodetypes="cccccccc"
         id="path6226"
         d="m 496.72276,380.98959 c -0.7436,-0.46258 -1.73005,-0.37949 -2.37452,0.26561 l -2.67895,2.678 c -0.74358,0.74327 -0.74358,1.94977 0,2.70075 0.75098,0.74328 1.95716,0.74328 2.70045,0 l 2.67798,-2.6783 c 0.60726,-0.60694 0.71344,-1.51704 0.33395,-2.23786 4.93924,-4.85659 3.70359,-4.82363 -0.65891,-0.7282 z"
         inkscape:connector-curvature="0" />
    </g>
  </g>
</svg>
